<mxfile host="app.diagrams.net" agent="Mozilla/5.0 (Windows NT 10.0; Win64; x64) AppleWebKit/537.36 (KHTML, like Gecko) Chrome/126.0.0.0 Safari/537.36" version="24.7.4">
  <diagram name="第 1 页" id="qAi6lv42CkGOTcoiDT95">
    <mxGraphModel dx="2713" dy="780" grid="0" gridSize="10" guides="1" tooltips="1" connect="1" arrows="1" fold="1" page="1" pageScale="1" pageWidth="827" pageHeight="1169" math="0" shadow="0">
      <root>
        <mxCell id="0" />
        <mxCell id="1" parent="0" />
        <mxCell id="rw2UG67hxd4hKxYkFQ7z-1" value="" style="ellipse;whiteSpace=wrap;html=1;aspect=fixed;" parent="1" vertex="1">
          <mxGeometry x="145" y="100" width="40" height="40" as="geometry" />
        </mxCell>
        <mxCell id="rw2UG67hxd4hKxYkFQ7z-6" value="节点启动" style="text;html=1;align=center;verticalAlign=middle;resizable=0;points=[];autosize=1;strokeColor=none;fillColor=none;" parent="1" vertex="1">
          <mxGeometry x="130" y="50" width="70" height="30" as="geometry" />
        </mxCell>
        <mxCell id="rw2UG67hxd4hKxYkFQ7z-7" value="" style="ellipse;whiteSpace=wrap;html=1;aspect=fixed;" parent="1" vertex="1">
          <mxGeometry x="260" y="100" width="40" height="40" as="geometry" />
        </mxCell>
        <mxCell id="rw2UG67hxd4hKxYkFQ7z-36" style="edgeStyle=orthogonalEdgeStyle;rounded=0;orthogonalLoop=1;jettySize=auto;html=1;exitX=0.5;exitY=1;exitDx=0;exitDy=0;entryX=0.5;entryY=0;entryDx=0;entryDy=0;" parent="1" source="rw2UG67hxd4hKxYkFQ7z-8" target="rw2UG67hxd4hKxYkFQ7z-9" edge="1">
          <mxGeometry relative="1" as="geometry" />
        </mxCell>
        <mxCell id="rw2UG67hxd4hKxYkFQ7z-8" value="&lt;font style=&quot;font-size: 18px;&quot;&gt;initLog&lt;/font&gt;" style="rounded=1;whiteSpace=wrap;html=1;" parent="1" vertex="1">
          <mxGeometry x="370" y="220" width="110" height="30" as="geometry" />
        </mxCell>
        <mxCell id="rw2UG67hxd4hKxYkFQ7z-37" style="edgeStyle=orthogonalEdgeStyle;rounded=0;orthogonalLoop=1;jettySize=auto;html=1;exitX=0.5;exitY=1;exitDx=0;exitDy=0;entryX=0.5;entryY=0;entryDx=0;entryDy=0;" parent="1" source="rw2UG67hxd4hKxYkFQ7z-9" target="rw2UG67hxd4hKxYkFQ7z-10" edge="1">
          <mxGeometry relative="1" as="geometry" />
        </mxCell>
        <mxCell id="rw2UG67hxd4hKxYkFQ7z-9" value="&lt;font style=&quot;font-size: 18px;&quot;&gt;initConfig&lt;/font&gt;" style="rounded=1;whiteSpace=wrap;html=1;" parent="1" vertex="1">
          <mxGeometry x="370" y="270" width="110" height="30" as="geometry" />
        </mxCell>
        <mxCell id="rw2UG67hxd4hKxYkFQ7z-38" style="edgeStyle=orthogonalEdgeStyle;rounded=0;orthogonalLoop=1;jettySize=auto;html=1;" parent="1" source="rw2UG67hxd4hKxYkFQ7z-10" target="rw2UG67hxd4hKxYkFQ7z-11" edge="1">
          <mxGeometry relative="1" as="geometry" />
        </mxCell>
        <mxCell id="rw2UG67hxd4hKxYkFQ7z-10" value="&lt;font style=&quot;font-size: 18px;&quot;&gt;initScure&lt;/font&gt;" style="rounded=1;whiteSpace=wrap;html=1;" parent="1" vertex="1">
          <mxGeometry x="370" y="320" width="110" height="30" as="geometry" />
        </mxCell>
        <mxCell id="rw2UG67hxd4hKxYkFQ7z-39" style="edgeStyle=orthogonalEdgeStyle;rounded=0;orthogonalLoop=1;jettySize=auto;html=1;entryX=0.5;entryY=0;entryDx=0;entryDy=0;" parent="1" source="rw2UG67hxd4hKxYkFQ7z-11" target="rw2UG67hxd4hKxYkFQ7z-12" edge="1">
          <mxGeometry relative="1" as="geometry" />
        </mxCell>
        <mxCell id="rw2UG67hxd4hKxYkFQ7z-11" value="&lt;font style=&quot;font-size: 18px;&quot;&gt;initP2P&lt;/font&gt;" style="rounded=1;whiteSpace=wrap;html=1;" parent="1" vertex="1">
          <mxGeometry x="370" y="370" width="110" height="30" as="geometry" />
        </mxCell>
        <mxCell id="rw2UG67hxd4hKxYkFQ7z-40" style="edgeStyle=orthogonalEdgeStyle;rounded=0;orthogonalLoop=1;jettySize=auto;html=1;exitX=0.5;exitY=1;exitDx=0;exitDy=0;" parent="1" source="rw2UG67hxd4hKxYkFQ7z-12" target="rw2UG67hxd4hKxYkFQ7z-13" edge="1">
          <mxGeometry relative="1" as="geometry" />
        </mxCell>
        <mxCell id="rw2UG67hxd4hKxYkFQ7z-12" value="&lt;font style=&quot;font-size: 18px;&quot;&gt;initRPC&lt;/font&gt;" style="rounded=1;whiteSpace=wrap;html=1;" parent="1" vertex="1">
          <mxGeometry x="370" y="420" width="110" height="30" as="geometry" />
        </mxCell>
        <mxCell id="rw2UG67hxd4hKxYkFQ7z-41" style="edgeStyle=orthogonalEdgeStyle;rounded=0;orthogonalLoop=1;jettySize=auto;html=1;exitX=0.5;exitY=1;exitDx=0;exitDy=0;entryX=0.5;entryY=0;entryDx=0;entryDy=0;" parent="1" source="rw2UG67hxd4hKxYkFQ7z-13" target="rw2UG67hxd4hKxYkFQ7z-21" edge="1">
          <mxGeometry relative="1" as="geometry" />
        </mxCell>
        <mxCell id="rw2UG67hxd4hKxYkFQ7z-13" value="&lt;font style=&quot;font-size: 18px;&quot;&gt;initLedger&lt;/font&gt;" style="rounded=1;whiteSpace=wrap;html=1;" parent="1" vertex="1">
          <mxGeometry x="370" y="470" width="110" height="30" as="geometry" />
        </mxCell>
        <mxCell id="rw2UG67hxd4hKxYkFQ7z-43" style="edgeStyle=orthogonalEdgeStyle;rounded=0;orthogonalLoop=1;jettySize=auto;html=1;exitX=0.5;exitY=1;exitDx=0;exitDy=0;entryX=0.5;entryY=0;entryDx=0;entryDy=0;" parent="1" source="rw2UG67hxd4hKxYkFQ7z-14" target="rw2UG67hxd4hKxYkFQ7z-15" edge="1">
          <mxGeometry relative="1" as="geometry" />
        </mxCell>
        <mxCell id="rw2UG67hxd4hKxYkFQ7z-14" value="&lt;font style=&quot;font-size: 14px;&quot;&gt;initBlockStorageDB&lt;/font&gt;" style="rounded=1;whiteSpace=wrap;html=1;fillColor=#fff2cc;strokeColor=#d6b656;" parent="1" vertex="1">
          <mxGeometry x="170" y="550" width="125" height="30" as="geometry" />
        </mxCell>
        <mxCell id="rw2UG67hxd4hKxYkFQ7z-44" style="edgeStyle=orthogonalEdgeStyle;rounded=0;orthogonalLoop=1;jettySize=auto;html=1;exitX=0.5;exitY=1;exitDx=0;exitDy=0;entryX=0.5;entryY=0;entryDx=0;entryDy=0;" parent="1" source="rw2UG67hxd4hKxYkFQ7z-15" target="rw2UG67hxd4hKxYkFQ7z-16" edge="1">
          <mxGeometry relative="1" as="geometry" />
        </mxCell>
        <mxCell id="rw2UG67hxd4hKxYkFQ7z-15" value="&lt;font style=&quot;font-size: 14px;&quot;&gt;initBlockChain&lt;/font&gt;" style="rounded=1;whiteSpace=wrap;html=1;fillColor=#fff2cc;strokeColor=#d6b656;" parent="1" vertex="1">
          <mxGeometry x="170" y="600" width="125" height="30" as="geometry" />
        </mxCell>
        <mxCell id="rw2UG67hxd4hKxYkFQ7z-45" style="edgeStyle=orthogonalEdgeStyle;rounded=0;orthogonalLoop=1;jettySize=auto;html=1;exitX=0.5;exitY=1;exitDx=0;exitDy=0;entryX=0.5;entryY=0;entryDx=0;entryDy=0;" parent="1" source="rw2UG67hxd4hKxYkFQ7z-16" target="rw2UG67hxd4hKxYkFQ7z-17" edge="1">
          <mxGeometry relative="1" as="geometry" />
        </mxCell>
        <mxCell id="rw2UG67hxd4hKxYkFQ7z-16" value="&lt;font style=&quot;font-size: 14px;&quot;&gt;initBlockVerifier&lt;/font&gt;" style="rounded=1;whiteSpace=wrap;html=1;fillColor=#fff2cc;strokeColor=#d6b656;" parent="1" vertex="1">
          <mxGeometry x="170" y="650" width="125" height="30" as="geometry" />
        </mxCell>
        <mxCell id="rw2UG67hxd4hKxYkFQ7z-49" style="edgeStyle=orthogonalEdgeStyle;rounded=0;orthogonalLoop=1;jettySize=auto;html=1;exitX=0.5;exitY=1;exitDx=0;exitDy=0;entryX=0.5;entryY=0;entryDx=0;entryDy=0;" parent="1" source="rw2UG67hxd4hKxYkFQ7z-17" target="rw2UG67hxd4hKxYkFQ7z-18" edge="1">
          <mxGeometry relative="1" as="geometry" />
        </mxCell>
        <mxCell id="rw2UG67hxd4hKxYkFQ7z-17" value="&lt;font style=&quot;font-size: 14px;&quot;&gt;initTxPool&lt;/font&gt;" style="rounded=1;whiteSpace=wrap;html=1;fillColor=#fff2cc;strokeColor=#d6b656;" parent="1" vertex="1">
          <mxGeometry x="170" y="700" width="125" height="30" as="geometry" />
        </mxCell>
        <mxCell id="rw2UG67hxd4hKxYkFQ7z-50" style="edgeStyle=orthogonalEdgeStyle;rounded=0;orthogonalLoop=1;jettySize=auto;html=1;exitX=0.5;exitY=1;exitDx=0;exitDy=0;entryX=0.5;entryY=0;entryDx=0;entryDy=0;" parent="1" source="rw2UG67hxd4hKxYkFQ7z-18" target="rw2UG67hxd4hKxYkFQ7z-19" edge="1">
          <mxGeometry relative="1" as="geometry" />
        </mxCell>
        <mxCell id="rw2UG67hxd4hKxYkFQ7z-18" value="&lt;font style=&quot;font-size: 14px;&quot;&gt;initSync&lt;/font&gt;" style="rounded=1;whiteSpace=wrap;html=1;fillColor=#fff2cc;strokeColor=#d6b656;" parent="1" vertex="1">
          <mxGeometry x="170" y="750" width="125" height="30" as="geometry" />
        </mxCell>
        <mxCell id="rw2UG67hxd4hKxYkFQ7z-51" style="edgeStyle=orthogonalEdgeStyle;rounded=0;orthogonalLoop=1;jettySize=auto;html=1;exitX=0.5;exitY=1;exitDx=0;exitDy=0;entryX=0.5;entryY=0;entryDx=0;entryDy=0;" parent="1" source="rw2UG67hxd4hKxYkFQ7z-19" target="rw2UG67hxd4hKxYkFQ7z-20" edge="1">
          <mxGeometry relative="1" as="geometry" />
        </mxCell>
        <mxCell id="rw2UG67hxd4hKxYkFQ7z-19" value="&lt;font style=&quot;font-size: 14px;&quot;&gt;initConsensus&lt;/font&gt;" style="rounded=1;whiteSpace=wrap;html=1;fillColor=#fff2cc;strokeColor=#d6b656;" parent="1" vertex="1">
          <mxGeometry x="170" y="800" width="125" height="30" as="geometry" />
        </mxCell>
        <mxCell id="rw2UG67hxd4hKxYkFQ7z-20" value="&lt;font style=&quot;font-size: 14px;&quot;&gt;initEvenLogFilter&lt;/font&gt;" style="rounded=1;whiteSpace=wrap;html=1;fillColor=#FFF2CC;strokeColor=#d6b656;" parent="1" vertex="1">
          <mxGeometry x="170" y="850" width="125" height="30" as="geometry" />
        </mxCell>
        <mxCell id="rw2UG67hxd4hKxYkFQ7z-53" style="edgeStyle=orthogonalEdgeStyle;rounded=0;orthogonalLoop=1;jettySize=auto;html=1;exitX=0.5;exitY=1;exitDx=0;exitDy=0;entryX=0.5;entryY=0;entryDx=0;entryDy=0;" parent="1" source="rw2UG67hxd4hKxYkFQ7z-21" target="rw2UG67hxd4hKxYkFQ7z-22" edge="1">
          <mxGeometry relative="1" as="geometry" />
        </mxCell>
        <mxCell id="rw2UG67hxd4hKxYkFQ7z-21" value="&lt;font style=&quot;font-size: 14px;&quot;&gt;initBlockStorageDB&lt;/font&gt;" style="rounded=1;whiteSpace=wrap;html=1;fillColor=#fff2cc;strokeColor=#d6b656;" parent="1" vertex="1">
          <mxGeometry x="362.5" y="550" width="125" height="30" as="geometry" />
        </mxCell>
        <mxCell id="rw2UG67hxd4hKxYkFQ7z-22" value="&lt;font style=&quot;font-size: 14px;&quot;&gt;initBlockChain&lt;/font&gt;" style="rounded=1;whiteSpace=wrap;html=1;fillColor=#fff2cc;strokeColor=#d6b656;" parent="1" vertex="1">
          <mxGeometry x="362.5" y="600" width="125" height="30" as="geometry" />
        </mxCell>
        <mxCell id="rw2UG67hxd4hKxYkFQ7z-55" style="edgeStyle=orthogonalEdgeStyle;rounded=0;orthogonalLoop=1;jettySize=auto;html=1;exitX=0.5;exitY=1;exitDx=0;exitDy=0;entryX=0.5;entryY=0;entryDx=0;entryDy=0;" parent="1" source="rw2UG67hxd4hKxYkFQ7z-23" target="rw2UG67hxd4hKxYkFQ7z-24" edge="1">
          <mxGeometry relative="1" as="geometry" />
        </mxCell>
        <mxCell id="rw2UG67hxd4hKxYkFQ7z-23" value="&lt;font style=&quot;font-size: 14px;&quot;&gt;initBlockVerifier&lt;/font&gt;" style="rounded=1;whiteSpace=wrap;html=1;fillColor=#fff2cc;strokeColor=#d6b656;" parent="1" vertex="1">
          <mxGeometry x="362.5" y="650" width="125" height="30" as="geometry" />
        </mxCell>
        <mxCell id="rw2UG67hxd4hKxYkFQ7z-56" style="edgeStyle=orthogonalEdgeStyle;rounded=0;orthogonalLoop=1;jettySize=auto;html=1;exitX=0.5;exitY=1;exitDx=0;exitDy=0;entryX=0.5;entryY=0;entryDx=0;entryDy=0;" parent="1" source="rw2UG67hxd4hKxYkFQ7z-24" target="rw2UG67hxd4hKxYkFQ7z-25" edge="1">
          <mxGeometry relative="1" as="geometry" />
        </mxCell>
        <mxCell id="rw2UG67hxd4hKxYkFQ7z-24" value="&lt;font style=&quot;font-size: 14px;&quot;&gt;initTxPool&lt;/font&gt;" style="rounded=1;whiteSpace=wrap;html=1;fillColor=#fff2cc;strokeColor=#d6b656;" parent="1" vertex="1">
          <mxGeometry x="362.5" y="700" width="125" height="30" as="geometry" />
        </mxCell>
        <mxCell id="rw2UG67hxd4hKxYkFQ7z-57" style="edgeStyle=orthogonalEdgeStyle;rounded=0;orthogonalLoop=1;jettySize=auto;html=1;exitX=0.5;exitY=1;exitDx=0;exitDy=0;entryX=0.5;entryY=0;entryDx=0;entryDy=0;" parent="1" source="rw2UG67hxd4hKxYkFQ7z-25" target="rw2UG67hxd4hKxYkFQ7z-26" edge="1">
          <mxGeometry relative="1" as="geometry" />
        </mxCell>
        <mxCell id="rw2UG67hxd4hKxYkFQ7z-25" value="&lt;font style=&quot;font-size: 14px;&quot;&gt;initSync&lt;/font&gt;" style="rounded=1;whiteSpace=wrap;html=1;fillColor=#fff2cc;strokeColor=#d6b656;" parent="1" vertex="1">
          <mxGeometry x="362.5" y="750" width="125" height="30" as="geometry" />
        </mxCell>
        <mxCell id="rw2UG67hxd4hKxYkFQ7z-58" style="edgeStyle=orthogonalEdgeStyle;rounded=0;orthogonalLoop=1;jettySize=auto;html=1;exitX=0.5;exitY=1;exitDx=0;exitDy=0;entryX=0.5;entryY=0;entryDx=0;entryDy=0;" parent="1" source="rw2UG67hxd4hKxYkFQ7z-26" target="rw2UG67hxd4hKxYkFQ7z-27" edge="1">
          <mxGeometry relative="1" as="geometry" />
        </mxCell>
        <mxCell id="rw2UG67hxd4hKxYkFQ7z-26" value="&lt;font style=&quot;font-size: 14px;&quot;&gt;initConsensus&lt;/font&gt;" style="rounded=1;whiteSpace=wrap;html=1;fillColor=#fff2cc;strokeColor=#d6b656;" parent="1" vertex="1">
          <mxGeometry x="362.5" y="800" width="125" height="30" as="geometry" />
        </mxCell>
        <mxCell id="rw2UG67hxd4hKxYkFQ7z-27" value="&lt;font style=&quot;font-size: 14px;&quot;&gt;initEvenLogFilter&lt;/font&gt;" style="rounded=1;whiteSpace=wrap;html=1;fillColor=#fff2cc;strokeColor=#d6b656;" parent="1" vertex="1">
          <mxGeometry x="362.5" y="850" width="125" height="30" as="geometry" />
        </mxCell>
        <mxCell id="rw2UG67hxd4hKxYkFQ7z-66" style="edgeStyle=orthogonalEdgeStyle;rounded=0;orthogonalLoop=1;jettySize=auto;html=1;exitX=0.5;exitY=1;exitDx=0;exitDy=0;entryX=0.5;entryY=0;entryDx=0;entryDy=0;" parent="1" source="rw2UG67hxd4hKxYkFQ7z-28" target="rw2UG67hxd4hKxYkFQ7z-29" edge="1">
          <mxGeometry relative="1" as="geometry" />
        </mxCell>
        <mxCell id="rw2UG67hxd4hKxYkFQ7z-28" value="&lt;font style=&quot;font-size: 14px;&quot;&gt;initBlockStorageDB&lt;/font&gt;" style="rounded=1;whiteSpace=wrap;html=1;fillColor=#fff2cc;strokeColor=#d6b656;" parent="1" vertex="1">
          <mxGeometry x="560" y="550" width="125" height="30" as="geometry" />
        </mxCell>
        <mxCell id="rw2UG67hxd4hKxYkFQ7z-65" style="edgeStyle=orthogonalEdgeStyle;rounded=0;orthogonalLoop=1;jettySize=auto;html=1;exitX=0.5;exitY=1;exitDx=0;exitDy=0;entryX=0.5;entryY=0;entryDx=0;entryDy=0;" parent="1" source="rw2UG67hxd4hKxYkFQ7z-29" target="rw2UG67hxd4hKxYkFQ7z-30" edge="1">
          <mxGeometry relative="1" as="geometry" />
        </mxCell>
        <mxCell id="rw2UG67hxd4hKxYkFQ7z-29" value="&lt;font style=&quot;font-size: 14px;&quot;&gt;initBlockChain&lt;/font&gt;" style="rounded=1;whiteSpace=wrap;html=1;fillColor=#fff2cc;strokeColor=#d6b656;" parent="1" vertex="1">
          <mxGeometry x="560" y="600" width="125" height="30" as="geometry" />
        </mxCell>
        <mxCell id="rw2UG67hxd4hKxYkFQ7z-62" style="edgeStyle=orthogonalEdgeStyle;rounded=0;orthogonalLoop=1;jettySize=auto;html=1;exitX=0.5;exitY=1;exitDx=0;exitDy=0;entryX=0.5;entryY=0;entryDx=0;entryDy=0;" parent="1" source="rw2UG67hxd4hKxYkFQ7z-30" target="rw2UG67hxd4hKxYkFQ7z-31" edge="1">
          <mxGeometry relative="1" as="geometry" />
        </mxCell>
        <mxCell id="rw2UG67hxd4hKxYkFQ7z-30" value="&lt;font style=&quot;font-size: 14px;&quot;&gt;initBlockVerifier&lt;/font&gt;" style="rounded=1;whiteSpace=wrap;html=1;fillColor=#fff2cc;strokeColor=#d6b656;" parent="1" vertex="1">
          <mxGeometry x="560" y="650" width="125" height="30" as="geometry" />
        </mxCell>
        <mxCell id="rw2UG67hxd4hKxYkFQ7z-61" style="edgeStyle=orthogonalEdgeStyle;rounded=0;orthogonalLoop=1;jettySize=auto;html=1;exitX=0.5;exitY=1;exitDx=0;exitDy=0;entryX=0.5;entryY=0;entryDx=0;entryDy=0;" parent="1" source="rw2UG67hxd4hKxYkFQ7z-31" target="rw2UG67hxd4hKxYkFQ7z-32" edge="1">
          <mxGeometry relative="1" as="geometry" />
        </mxCell>
        <mxCell id="rw2UG67hxd4hKxYkFQ7z-31" value="&lt;font style=&quot;font-size: 14px;&quot;&gt;initTxPool&lt;/font&gt;" style="rounded=1;whiteSpace=wrap;html=1;fillColor=#fff2cc;strokeColor=#d6b656;" parent="1" vertex="1">
          <mxGeometry x="560" y="700" width="125" height="30" as="geometry" />
        </mxCell>
        <mxCell id="rw2UG67hxd4hKxYkFQ7z-60" style="edgeStyle=orthogonalEdgeStyle;rounded=0;orthogonalLoop=1;jettySize=auto;html=1;exitX=0.5;exitY=1;exitDx=0;exitDy=0;entryX=0.5;entryY=0;entryDx=0;entryDy=0;" parent="1" source="rw2UG67hxd4hKxYkFQ7z-32" target="rw2UG67hxd4hKxYkFQ7z-33" edge="1">
          <mxGeometry relative="1" as="geometry" />
        </mxCell>
        <mxCell id="rw2UG67hxd4hKxYkFQ7z-32" value="&lt;font style=&quot;font-size: 14px;&quot;&gt;initSync&lt;/font&gt;" style="rounded=1;whiteSpace=wrap;html=1;fillColor=#fff2cc;strokeColor=#d6b656;" parent="1" vertex="1">
          <mxGeometry x="560" y="750" width="125" height="30" as="geometry" />
        </mxCell>
        <mxCell id="rw2UG67hxd4hKxYkFQ7z-59" style="edgeStyle=orthogonalEdgeStyle;rounded=0;orthogonalLoop=1;jettySize=auto;html=1;exitX=0.5;exitY=1;exitDx=0;exitDy=0;entryX=0.5;entryY=0;entryDx=0;entryDy=0;" parent="1" source="rw2UG67hxd4hKxYkFQ7z-33" target="rw2UG67hxd4hKxYkFQ7z-34" edge="1">
          <mxGeometry relative="1" as="geometry" />
        </mxCell>
        <mxCell id="rw2UG67hxd4hKxYkFQ7z-33" value="&lt;font style=&quot;font-size: 14px;&quot;&gt;initConsensus&lt;/font&gt;" style="rounded=1;whiteSpace=wrap;html=1;fillColor=#fff2cc;strokeColor=#d6b656;" parent="1" vertex="1">
          <mxGeometry x="560" y="800" width="125" height="30" as="geometry" />
        </mxCell>
        <mxCell id="rw2UG67hxd4hKxYkFQ7z-34" value="&lt;font style=&quot;font-size: 14px;&quot;&gt;initEvenLogFilter&lt;/font&gt;" style="rounded=1;whiteSpace=wrap;html=1;fillColor=#fff2cc;strokeColor=#d6b656;" parent="1" vertex="1">
          <mxGeometry x="560" y="850" width="125" height="30" as="geometry" />
        </mxCell>
        <mxCell id="rw2UG67hxd4hKxYkFQ7z-35" value="" style="endArrow=classic;html=1;rounded=0;entryX=0.5;entryY=0;entryDx=0;entryDy=0;" parent="1" target="rw2UG67hxd4hKxYkFQ7z-28" edge="1">
          <mxGeometry width="50" height="50" relative="1" as="geometry">
            <mxPoint x="430" y="500" as="sourcePoint" />
            <mxPoint x="620" y="430" as="targetPoint" />
          </mxGeometry>
        </mxCell>
        <mxCell id="rw2UG67hxd4hKxYkFQ7z-42" value="" style="endArrow=classic;html=1;rounded=0;entryX=0.5;entryY=0;entryDx=0;entryDy=0;exitX=0.455;exitY=1;exitDx=0;exitDy=0;exitPerimeter=0;" parent="1" source="rw2UG67hxd4hKxYkFQ7z-13" target="rw2UG67hxd4hKxYkFQ7z-14" edge="1">
          <mxGeometry width="50" height="50" relative="1" as="geometry">
            <mxPoint x="430" y="500" as="sourcePoint" />
            <mxPoint x="620" y="430" as="targetPoint" />
          </mxGeometry>
        </mxCell>
        <mxCell id="rw2UG67hxd4hKxYkFQ7z-54" style="edgeStyle=orthogonalEdgeStyle;rounded=0;orthogonalLoop=1;jettySize=auto;html=1;exitX=0.5;exitY=1;exitDx=0;exitDy=0;entryX=0.5;entryY=0;entryDx=0;entryDy=0;" parent="1" source="rw2UG67hxd4hKxYkFQ7z-22" target="rw2UG67hxd4hKxYkFQ7z-23" edge="1">
          <mxGeometry relative="1" as="geometry" />
        </mxCell>
        <mxCell id="rw2UG67hxd4hKxYkFQ7z-68" value="RPC线程" style="ellipse;whiteSpace=wrap;html=1;shadow=1;fillColor=#FFF2CC;" parent="1" vertex="1">
          <mxGeometry x="55" y="1205" width="96" height="51" as="geometry" />
        </mxCell>
        <mxCell id="rw2UG67hxd4hKxYkFQ7z-69" value="TxPool" style="shape=ext;double=1;rounded=1;whiteSpace=wrap;html=1;" parent="1" vertex="1">
          <mxGeometry x="208.5" y="1289" width="68" height="135" as="geometry" />
        </mxCell>
        <mxCell id="rw2UG67hxd4hKxYkFQ7z-70" value="Channel线程" style="ellipse;whiteSpace=wrap;html=1;shadow=1;fillColor=#FFF2CC;" parent="1" vertex="1">
          <mxGeometry x="55" y="1441" width="96" height="51" as="geometry" />
        </mxCell>
        <mxCell id="rw2UG67hxd4hKxYkFQ7z-71" value="BlockChain" style="shape=ext;double=1;rounded=1;whiteSpace=wrap;html=1;" parent="1" vertex="1">
          <mxGeometry x="358" y="1289" width="68" height="135" as="geometry" />
        </mxCell>
        <mxCell id="rw2UG67hxd4hKxYkFQ7z-72" value="Session" style="shape=ext;double=1;rounded=1;whiteSpace=wrap;html=1;" parent="1" vertex="1">
          <mxGeometry x="505" y="1289" width="68" height="135" as="geometry" />
        </mxCell>
        <mxCell id="rw2UG67hxd4hKxYkFQ7z-73" value="Sealer线程" style="ellipse;whiteSpace=wrap;html=1;shadow=1;fillColor=#FFF2CC;" parent="1" vertex="1">
          <mxGeometry x="194.5" y="1485" width="96" height="51" as="geometry" />
        </mxCell>
        <mxCell id="rw2UG67hxd4hKxYkFQ7z-74" value="Engine线程" style="ellipse;whiteSpace=wrap;html=1;shadow=1;fillColor=#FFF2CC;" parent="1" vertex="1">
          <mxGeometry x="406" y="1487" width="96" height="51" as="geometry" />
        </mxCell>
        <mxCell id="rw2UG67hxd4hKxYkFQ7z-75" value="P2P Host线程" style="ellipse;whiteSpace=wrap;html=1;shadow=1;fillColor=#FFF2CC;" parent="1" vertex="1">
          <mxGeometry x="646" y="1336" width="96" height="51" as="geometry" />
        </mxCell>
        <mxCell id="rw2UG67hxd4hKxYkFQ7z-76" value="Sync线程" style="ellipse;whiteSpace=wrap;html=1;shadow=1;fillColor=#FFF2CC;" parent="1" vertex="1">
          <mxGeometry x="270" y="1197" width="96" height="51" as="geometry" />
        </mxCell>
        <mxCell id="rw2UG67hxd4hKxYkFQ7z-78" value="" style="endArrow=classic;html=1;rounded=0;exitX=1;exitY=1;exitDx=0;exitDy=0;" parent="1" source="rw2UG67hxd4hKxYkFQ7z-68" target="rw2UG67hxd4hKxYkFQ7z-69" edge="1">
          <mxGeometry width="50" height="50" relative="1" as="geometry">
            <mxPoint x="347" y="1429" as="sourcePoint" />
            <mxPoint x="397" y="1379" as="targetPoint" />
          </mxGeometry>
        </mxCell>
        <mxCell id="rw2UG67hxd4hKxYkFQ7z-79" value="接收交易" style="text;html=1;align=center;verticalAlign=middle;resizable=0;points=[];autosize=1;strokeColor=none;fillColor=none;" parent="1" vertex="1">
          <mxGeometry x="111" y="1275" width="66" height="26" as="geometry" />
        </mxCell>
        <mxCell id="rw2UG67hxd4hKxYkFQ7z-80" value="" style="endArrow=classic;html=1;rounded=0;exitX=1;exitY=0;exitDx=0;exitDy=0;" parent="1" source="rw2UG67hxd4hKxYkFQ7z-70" target="rw2UG67hxd4hKxYkFQ7z-69" edge="1">
          <mxGeometry width="50" height="50" relative="1" as="geometry">
            <mxPoint x="347" y="1429" as="sourcePoint" />
            <mxPoint x="397" y="1379" as="targetPoint" />
          </mxGeometry>
        </mxCell>
        <mxCell id="rw2UG67hxd4hKxYkFQ7z-81" value="接收交易" style="text;html=1;align=center;verticalAlign=middle;resizable=0;points=[];autosize=1;strokeColor=none;fillColor=none;" parent="1" vertex="1">
          <mxGeometry x="111" y="1394" width="66" height="26" as="geometry" />
        </mxCell>
        <mxCell id="rw2UG67hxd4hKxYkFQ7z-82" value="" style="endArrow=classic;startArrow=classic;html=1;rounded=0;exitX=0.5;exitY=0;exitDx=0;exitDy=0;entryX=0.269;entryY=1.003;entryDx=0;entryDy=0;entryPerimeter=0;" parent="1" source="rw2UG67hxd4hKxYkFQ7z-69" target="rw2UG67hxd4hKxYkFQ7z-76" edge="1">
          <mxGeometry width="50" height="50" relative="1" as="geometry">
            <mxPoint x="347" y="1429" as="sourcePoint" />
            <mxPoint x="397" y="1379" as="targetPoint" />
          </mxGeometry>
        </mxCell>
        <mxCell id="rw2UG67hxd4hKxYkFQ7z-83" value="传播交易" style="edgeLabel;html=1;align=center;verticalAlign=middle;resizable=0;points=[];" parent="rw2UG67hxd4hKxYkFQ7z-82" vertex="1" connectable="0">
          <mxGeometry x="0.1204" y="2" relative="1" as="geometry">
            <mxPoint x="-26" y="-4" as="offset" />
          </mxGeometry>
        </mxCell>
        <mxCell id="rw2UG67hxd4hKxYkFQ7z-88" value="" style="endArrow=classic;startArrow=classic;html=1;rounded=0;exitX=0.5;exitY=0;exitDx=0;exitDy=0;entryX=0.573;entryY=1.016;entryDx=0;entryDy=0;entryPerimeter=0;" parent="1" source="rw2UG67hxd4hKxYkFQ7z-71" target="rw2UG67hxd4hKxYkFQ7z-76" edge="1">
          <mxGeometry width="50" height="50" relative="1" as="geometry">
            <mxPoint x="253" y="1299" as="sourcePoint" />
            <mxPoint x="294" y="1250" as="targetPoint" />
          </mxGeometry>
        </mxCell>
        <mxCell id="rw2UG67hxd4hKxYkFQ7z-89" value="传播区块" style="edgeLabel;html=1;align=center;verticalAlign=middle;resizable=0;points=[];" parent="rw2UG67hxd4hKxYkFQ7z-88" vertex="1" connectable="0">
          <mxGeometry x="0.1204" y="2" relative="1" as="geometry">
            <mxPoint x="24" y="-12" as="offset" />
          </mxGeometry>
        </mxCell>
        <mxCell id="rw2UG67hxd4hKxYkFQ7z-90" value="" style="endArrow=classic;html=1;rounded=0;exitX=0.5;exitY=1;exitDx=0;exitDy=0;" parent="1" source="rw2UG67hxd4hKxYkFQ7z-69" target="rw2UG67hxd4hKxYkFQ7z-73" edge="1">
          <mxGeometry width="50" height="50" relative="1" as="geometry">
            <mxPoint x="347" y="1429" as="sourcePoint" />
            <mxPoint x="397" y="1379" as="targetPoint" />
          </mxGeometry>
        </mxCell>
        <mxCell id="rw2UG67hxd4hKxYkFQ7z-91" value="打包交易" style="edgeLabel;html=1;align=center;verticalAlign=middle;resizable=0;points=[];" parent="rw2UG67hxd4hKxYkFQ7z-90" vertex="1" connectable="0">
          <mxGeometry x="-0.0436" y="3" relative="1" as="geometry">
            <mxPoint x="37" y="8" as="offset" />
          </mxGeometry>
        </mxCell>
        <mxCell id="rw2UG67hxd4hKxYkFQ7z-92" value="" style="endArrow=classic;html=1;rounded=0;exitX=1;exitY=0.5;exitDx=0;exitDy=0;entryX=0;entryY=0.5;entryDx=0;entryDy=0;" parent="1" source="rw2UG67hxd4hKxYkFQ7z-73" target="rw2UG67hxd4hKxYkFQ7z-74" edge="1">
          <mxGeometry width="50" height="50" relative="1" as="geometry">
            <mxPoint x="347" y="1429" as="sourcePoint" />
            <mxPoint x="397" y="1379" as="targetPoint" />
          </mxGeometry>
        </mxCell>
        <mxCell id="rw2UG67hxd4hKxYkFQ7z-95" value="提交区块" style="edgeLabel;html=1;align=center;verticalAlign=middle;resizable=0;points=[];" parent="rw2UG67hxd4hKxYkFQ7z-92" vertex="1" connectable="0">
          <mxGeometry x="-0.1061" y="-2" relative="1" as="geometry">
            <mxPoint x="2" y="17" as="offset" />
          </mxGeometry>
        </mxCell>
        <mxCell id="rw2UG67hxd4hKxYkFQ7z-93" value="" style="endArrow=classic;html=1;rounded=0;exitX=0;exitY=0;exitDx=0;exitDy=0;entryX=0.9;entryY=0.986;entryDx=0;entryDy=0;entryPerimeter=0;" parent="1" source="rw2UG67hxd4hKxYkFQ7z-74" target="rw2UG67hxd4hKxYkFQ7z-71" edge="1">
          <mxGeometry width="50" height="50" relative="1" as="geometry">
            <mxPoint x="347" y="1429" as="sourcePoint" />
            <mxPoint x="397" y="1379" as="targetPoint" />
          </mxGeometry>
        </mxCell>
        <mxCell id="rw2UG67hxd4hKxYkFQ7z-96" value="提交区块" style="edgeLabel;html=1;align=center;verticalAlign=middle;resizable=0;points=[];" parent="rw2UG67hxd4hKxYkFQ7z-93" vertex="1" connectable="0">
          <mxGeometry x="0.0667" y="1" relative="1" as="geometry">
            <mxPoint x="26" y="-5" as="offset" />
          </mxGeometry>
        </mxCell>
        <mxCell id="rw2UG67hxd4hKxYkFQ7z-98" value="" style="endArrow=classic;startArrow=classic;html=1;rounded=0;entryX=0.588;entryY=1.007;entryDx=0;entryDy=0;entryPerimeter=0;exitX=1;exitY=0.5;exitDx=0;exitDy=0;" parent="1" source="rw2UG67hxd4hKxYkFQ7z-74" target="rw2UG67hxd4hKxYkFQ7z-72" edge="1">
          <mxGeometry width="50" height="50" relative="1" as="geometry">
            <mxPoint x="347" y="1429" as="sourcePoint" />
            <mxPoint x="397" y="1379" as="targetPoint" />
          </mxGeometry>
        </mxCell>
        <mxCell id="rw2UG67hxd4hKxYkFQ7z-99" value="收发共识消息" style="edgeLabel;html=1;align=center;verticalAlign=middle;resizable=0;points=[];" parent="rw2UG67hxd4hKxYkFQ7z-98" vertex="1" connectable="0">
          <mxGeometry x="0.2078" y="-2" relative="1" as="geometry">
            <mxPoint x="34" y="3" as="offset" />
          </mxGeometry>
        </mxCell>
        <mxCell id="rw2UG67hxd4hKxYkFQ7z-100" value="" style="endArrow=classic;html=1;rounded=0;exitX=0;exitY=0.5;exitDx=0;exitDy=0;" parent="1" source="rw2UG67hxd4hKxYkFQ7z-75" edge="1">
          <mxGeometry width="50" height="50" relative="1" as="geometry">
            <mxPoint x="618" y="1362" as="sourcePoint" />
            <mxPoint x="571" y="1362" as="targetPoint" />
          </mxGeometry>
        </mxCell>
        <mxCell id="rw2UG67hxd4hKxYkFQ7z-103" value="建立节点连接" style="edgeLabel;html=1;align=center;verticalAlign=middle;resizable=0;points=[];" parent="rw2UG67hxd4hKxYkFQ7z-100" vertex="1" connectable="0">
          <mxGeometry x="-0.2695" relative="1" as="geometry">
            <mxPoint x="-6" y="-14" as="offset" />
          </mxGeometry>
        </mxCell>
        <mxCell id="rw2UG67hxd4hKxYkFQ7z-105" value="" style="endArrow=classic;startArrow=classic;html=1;rounded=0;exitX=0.5;exitY=0;exitDx=0;exitDy=0;entryX=1;entryY=0.5;entryDx=0;entryDy=0;" parent="1" source="rw2UG67hxd4hKxYkFQ7z-72" target="rw2UG67hxd4hKxYkFQ7z-76" edge="1">
          <mxGeometry width="50" height="50" relative="1" as="geometry">
            <mxPoint x="402" y="1299" as="sourcePoint" />
            <mxPoint x="362" y="1250" as="targetPoint" />
          </mxGeometry>
        </mxCell>
        <mxCell id="rw2UG67hxd4hKxYkFQ7z-106" value="收发同步消息" style="edgeLabel;html=1;align=center;verticalAlign=middle;resizable=0;points=[];" parent="rw2UG67hxd4hKxYkFQ7z-105" vertex="1" connectable="0">
          <mxGeometry x="0.1204" y="2" relative="1" as="geometry">
            <mxPoint x="66" y="3" as="offset" />
          </mxGeometry>
        </mxCell>
        <mxCell id="rw2UG67hxd4hKxYkFQ7z-120" style="edgeStyle=orthogonalEdgeStyle;rounded=0;orthogonalLoop=1;jettySize=auto;html=1;exitX=0.5;exitY=1;exitDx=0;exitDy=0;entryX=0.5;entryY=0;entryDx=0;entryDy=0;" parent="1" source="rw2UG67hxd4hKxYkFQ7z-121" edge="1">
          <mxGeometry relative="1" as="geometry">
            <mxPoint x="332.5" y="1651" as="targetPoint" />
          </mxGeometry>
        </mxCell>
        <mxCell id="rw2UG67hxd4hKxYkFQ7z-121" value="&lt;font style=&quot;font-size: 18px;&quot;&gt;Ledger::consensusInitFactory&lt;/font&gt;" style="rounded=1;whiteSpace=wrap;html=1;" parent="1" vertex="1">
          <mxGeometry x="206" y="1601" width="252" height="27" as="geometry" />
        </mxCell>
        <mxCell id="rw2UG67hxd4hKxYkFQ7z-135" style="edgeStyle=orthogonalEdgeStyle;rounded=0;orthogonalLoop=1;jettySize=auto;html=1;exitX=0.5;exitY=1;exitDx=0;exitDy=0;entryX=0.5;entryY=0;entryDx=0;entryDy=0;" parent="1" source="rw2UG67hxd4hKxYkFQ7z-131" target="rw2UG67hxd4hKxYkFQ7z-132" edge="1">
          <mxGeometry relative="1" as="geometry" />
        </mxCell>
        <mxCell id="rw2UG67hxd4hKxYkFQ7z-131" value="&lt;font style=&quot;font-size: 18px;&quot;&gt;createPBFTSealer&lt;/font&gt;" style="rounded=1;whiteSpace=wrap;html=1;" parent="1" vertex="1">
          <mxGeometry x="206" y="1653" width="252" height="27" as="geometry" />
        </mxCell>
        <mxCell id="rw2UG67hxd4hKxYkFQ7z-136" style="edgeStyle=orthogonalEdgeStyle;rounded=0;orthogonalLoop=1;jettySize=auto;html=1;exitX=0.5;exitY=1;exitDx=0;exitDy=0;entryX=0.5;entryY=0;entryDx=0;entryDy=0;" parent="1" source="rw2UG67hxd4hKxYkFQ7z-132" target="rw2UG67hxd4hKxYkFQ7z-133" edge="1">
          <mxGeometry relative="1" as="geometry" />
        </mxCell>
        <mxCell id="rw2UG67hxd4hKxYkFQ7z-132" value="&lt;font style=&quot;font-size: 18px;&quot;&gt;createConsensusEngine&lt;/font&gt;" style="rounded=1;whiteSpace=wrap;html=1;" parent="1" vertex="1">
          <mxGeometry x="206" y="1705" width="252" height="27" as="geometry" />
        </mxCell>
        <mxCell id="rw2UG67hxd4hKxYkFQ7z-137" style="edgeStyle=orthogonalEdgeStyle;rounded=0;orthogonalLoop=1;jettySize=auto;html=1;exitX=0.5;exitY=1;exitDx=0;exitDy=0;entryX=0.5;entryY=0;entryDx=0;entryDy=0;" parent="1" source="rw2UG67hxd4hKxYkFQ7z-133" target="rw2UG67hxd4hKxYkFQ7z-134" edge="1">
          <mxGeometry relative="1" as="geometry" />
        </mxCell>
        <mxCell id="rw2UG67hxd4hKxYkFQ7z-133" value="&lt;font style=&quot;font-size: 18px;&quot;&gt;m_sealer-&amp;gt;start()&lt;/font&gt;" style="rounded=1;whiteSpace=wrap;html=1;" parent="1" vertex="1">
          <mxGeometry x="206" y="1757" width="252" height="27" as="geometry" />
        </mxCell>
        <mxCell id="rw2UG67hxd4hKxYkFQ7z-134" value="&lt;font style=&quot;font-size: 18px;&quot;&gt;m_pbftEngine-&amp;gt;start()&lt;/font&gt;" style="rounded=1;whiteSpace=wrap;html=1;" parent="1" vertex="1">
          <mxGeometry x="206" y="1809" width="252" height="27" as="geometry" />
        </mxCell>
        <mxCell id="rw2UG67hxd4hKxYkFQ7z-138" value="打包开始&lt;div&gt;SeLear::doWork()&lt;/div&gt;" style="ellipse;whiteSpace=wrap;html=1;" parent="1" vertex="1">
          <mxGeometry x="19" y="2075" width="120" height="44" as="geometry" />
        </mxCell>
        <mxCell id="rw2UG67hxd4hKxYkFQ7z-139" value="更新区块&lt;div&gt;reportNewBlock()&lt;/div&gt;" style="ellipse;whiteSpace=wrap;html=1;" parent="1" vertex="1">
          <mxGeometry x="190" y="2024" width="151" height="38" as="geometry" />
        </mxCell>
        <mxCell id="rw2UG67hxd4hKxYkFQ7z-140" value="更新区块,重置共识&lt;div&gt;Engine::reportBlock()&lt;/div&gt;" style="ellipse;whiteSpace=wrap;html=1;" parent="1" vertex="1">
          <mxGeometry x="386" y="2024" width="145.5" height="38" as="geometry" />
        </mxCell>
        <mxCell id="rw2UG67hxd4hKxYkFQ7z-141" value="打包区块&lt;div&gt;handleBlock()&lt;/div&gt;" style="ellipse;whiteSpace=wrap;html=1;" parent="1" vertex="1">
          <mxGeometry x="194.5" y="2123" width="151" height="38" as="geometry" />
        </mxCell>
        <mxCell id="rw2UG67hxd4hKxYkFQ7z-142" value="打包区块&lt;div&gt;PBFTSelear::handleBlock()&lt;/div&gt;" style="ellipse;whiteSpace=wrap;html=1;" parent="1" vertex="1">
          <mxGeometry x="386" y="2123" width="182" height="38" as="geometry" />
        </mxCell>
        <mxCell id="rw2UG67hxd4hKxYkFQ7z-143" value="&lt;div&gt;开始共识&lt;/div&gt;&lt;div&gt;PBFTEngine&lt;span style=&quot;background-color: initial;&quot;&gt;::generatePrepare()&lt;/span&gt;&lt;/div&gt;" style="ellipse;whiteSpace=wrap;html=1;" parent="1" vertex="1">
          <mxGeometry x="621" y="2127" width="212" height="38" as="geometry" />
        </mxCell>
        <mxCell id="rw2UG67hxd4hKxYkFQ7z-148" value="" style="curved=1;endArrow=classic;html=1;rounded=0;exitX=1;exitY=0;exitDx=0;exitDy=0;entryX=0;entryY=0.5;entryDx=0;entryDy=0;" parent="1" source="rw2UG67hxd4hKxYkFQ7z-138" target="rw2UG67hxd4hKxYkFQ7z-139" edge="1">
          <mxGeometry width="50" height="50" relative="1" as="geometry">
            <mxPoint x="391" y="2269" as="sourcePoint" />
            <mxPoint x="441" y="2219" as="targetPoint" />
            <Array as="points">
              <mxPoint x="146" y="2057" />
            </Array>
          </mxGeometry>
        </mxCell>
        <mxCell id="rw2UG67hxd4hKxYkFQ7z-149" value="" style="curved=1;endArrow=classic;html=1;rounded=0;exitX=1;exitY=0.5;exitDx=0;exitDy=0;entryX=0;entryY=0.5;entryDx=0;entryDy=0;" parent="1" source="rw2UG67hxd4hKxYkFQ7z-139" target="rw2UG67hxd4hKxYkFQ7z-140" edge="1">
          <mxGeometry width="50" height="50" relative="1" as="geometry">
            <mxPoint x="341" y="2035" as="sourcePoint" />
            <mxPoint x="409" y="1996" as="targetPoint" />
            <Array as="points">
              <mxPoint x="365" y="2033" />
            </Array>
          </mxGeometry>
        </mxCell>
        <mxCell id="rw2UG67hxd4hKxYkFQ7z-150" value="" style="curved=1;endArrow=classic;html=1;rounded=0;exitX=1;exitY=1;exitDx=0;exitDy=0;entryX=0;entryY=0.5;entryDx=0;entryDy=0;" parent="1" source="rw2UG67hxd4hKxYkFQ7z-138" target="rw2UG67hxd4hKxYkFQ7z-141" edge="1">
          <mxGeometry width="50" height="50" relative="1" as="geometry">
            <mxPoint x="132" y="2092" as="sourcePoint" />
            <mxPoint x="200" y="2053" as="targetPoint" />
            <Array as="points">
              <mxPoint x="151" y="2143" />
            </Array>
          </mxGeometry>
        </mxCell>
        <mxCell id="rw2UG67hxd4hKxYkFQ7z-151" value="" style="curved=1;endArrow=classic;html=1;rounded=0;exitX=1;exitY=1;exitDx=0;exitDy=0;entryX=0;entryY=0.5;entryDx=0;entryDy=0;" parent="1" target="rw2UG67hxd4hKxYkFQ7z-142" edge="1">
          <mxGeometry width="50" height="50" relative="1" as="geometry">
            <mxPoint x="345.5" y="2141" as="sourcePoint" />
            <mxPoint x="418.5" y="2171" as="targetPoint" />
            <Array as="points" />
          </mxGeometry>
        </mxCell>
        <mxCell id="rw2UG67hxd4hKxYkFQ7z-152" value="" style="curved=1;endArrow=classic;html=1;rounded=0;exitX=1;exitY=1;exitDx=0;exitDy=0;entryX=0;entryY=0.5;entryDx=0;entryDy=0;" parent="1" target="rw2UG67hxd4hKxYkFQ7z-143" edge="1">
          <mxGeometry width="50" height="50" relative="1" as="geometry">
            <mxPoint x="568" y="2141.5" as="sourcePoint" />
            <mxPoint x="608.5" y="2142.5" as="targetPoint" />
            <Array as="points" />
          </mxGeometry>
        </mxCell>
        <mxCell id="xCXwrp4IzFHrZe-hl9Yo-20" style="edgeStyle=orthogonalEdgeStyle;rounded=0;orthogonalLoop=1;jettySize=auto;html=1;exitX=1;exitY=0.5;exitDx=0;exitDy=0;entryX=0;entryY=0.5;entryDx=0;entryDy=0;" edge="1" parent="1" source="xCXwrp4IzFHrZe-hl9Yo-1" target="xCXwrp4IzFHrZe-hl9Yo-2">
          <mxGeometry relative="1" as="geometry" />
        </mxCell>
        <mxCell id="xCXwrp4IzFHrZe-hl9Yo-1" value="&lt;div&gt;处理PBFT共识请求&lt;/div&gt;&lt;div&gt;PBFTEngine::handleMsg()&lt;/div&gt;" style="ellipse;whiteSpace=wrap;html=1;fillColor=#FFF2CC;" vertex="1" parent="1">
          <mxGeometry x="192" y="2577" width="172" height="50" as="geometry" />
        </mxCell>
        <mxCell id="xCXwrp4IzFHrZe-hl9Yo-2" value="&lt;div&gt;获取PBFT消息类型&lt;/div&gt;" style="ellipse;whiteSpace=wrap;html=1;" vertex="1" parent="1">
          <mxGeometry x="391.5" y="2577" width="117.5" height="50" as="geometry" />
        </mxCell>
        <mxCell id="xCXwrp4IzFHrZe-hl9Yo-26" style="edgeStyle=orthogonalEdgeStyle;rounded=0;orthogonalLoop=1;jettySize=auto;html=1;entryX=0;entryY=0.5;entryDx=0;entryDy=0;" edge="1" parent="1" source="xCXwrp4IzFHrZe-hl9Yo-3" target="xCXwrp4IzFHrZe-hl9Yo-21">
          <mxGeometry relative="1" as="geometry" />
        </mxCell>
        <mxCell id="xCXwrp4IzFHrZe-hl9Yo-3" value="&lt;div&gt;处理prepare请求&lt;/div&gt;&lt;div&gt;handlePrepareMsg()&lt;/div&gt;" style="ellipse;whiteSpace=wrap;html=1;" vertex="1" parent="1">
          <mxGeometry x="569" y="2376" width="156" height="50" as="geometry" />
        </mxCell>
        <mxCell id="xCXwrp4IzFHrZe-hl9Yo-27" style="edgeStyle=orthogonalEdgeStyle;rounded=0;orthogonalLoop=1;jettySize=auto;html=1;entryX=0;entryY=0.5;entryDx=0;entryDy=0;" edge="1" parent="1" source="xCXwrp4IzFHrZe-hl9Yo-4" target="xCXwrp4IzFHrZe-hl9Yo-22">
          <mxGeometry relative="1" as="geometry" />
        </mxCell>
        <mxCell id="xCXwrp4IzFHrZe-hl9Yo-4" value="&lt;div&gt;处理Sign请求&lt;/div&gt;&lt;div&gt;handleSignMsg()&lt;/div&gt;" style="ellipse;whiteSpace=wrap;html=1;" vertex="1" parent="1">
          <mxGeometry x="574" y="2505" width="156" height="50" as="geometry" />
        </mxCell>
        <mxCell id="xCXwrp4IzFHrZe-hl9Yo-28" style="edgeStyle=orthogonalEdgeStyle;rounded=0;orthogonalLoop=1;jettySize=auto;html=1;entryX=0;entryY=0.5;entryDx=0;entryDy=0;" edge="1" parent="1" source="xCXwrp4IzFHrZe-hl9Yo-5" target="xCXwrp4IzFHrZe-hl9Yo-23">
          <mxGeometry relative="1" as="geometry" />
        </mxCell>
        <mxCell id="xCXwrp4IzFHrZe-hl9Yo-5" value="&lt;div&gt;处理Commit请求&lt;/div&gt;&lt;div&gt;handleCommitMsg()&lt;/div&gt;" style="ellipse;whiteSpace=wrap;html=1;" vertex="1" parent="1">
          <mxGeometry x="577" y="2669" width="156" height="50" as="geometry" />
        </mxCell>
        <mxCell id="xCXwrp4IzFHrZe-hl9Yo-29" style="edgeStyle=orthogonalEdgeStyle;rounded=0;orthogonalLoop=1;jettySize=auto;html=1;entryX=0;entryY=0.5;entryDx=0;entryDy=0;" edge="1" parent="1" source="xCXwrp4IzFHrZe-hl9Yo-6" target="xCXwrp4IzFHrZe-hl9Yo-24">
          <mxGeometry relative="1" as="geometry" />
        </mxCell>
        <mxCell id="xCXwrp4IzFHrZe-hl9Yo-6" value="&lt;div&gt;处理ViewChange请求&lt;/div&gt;&lt;div&gt;handleViewChangeMsg()&lt;/div&gt;" style="ellipse;whiteSpace=wrap;html=1;" vertex="1" parent="1">
          <mxGeometry x="577" y="2819" width="156" height="50" as="geometry" />
        </mxCell>
        <mxCell id="xCXwrp4IzFHrZe-hl9Yo-7" value="" style="curved=1;endArrow=classic;html=1;rounded=0;exitX=0.5;exitY=0;exitDx=0;exitDy=0;entryX=0;entryY=0.5;entryDx=0;entryDy=0;" edge="1" parent="1" source="xCXwrp4IzFHrZe-hl9Yo-2" target="xCXwrp4IzFHrZe-hl9Yo-3">
          <mxGeometry width="50" height="50" relative="1" as="geometry">
            <mxPoint x="709" y="2665" as="sourcePoint" />
            <mxPoint x="759" y="2615" as="targetPoint" />
            <Array as="points">
              <mxPoint x="484" y="2458" />
            </Array>
          </mxGeometry>
        </mxCell>
        <mxCell id="xCXwrp4IzFHrZe-hl9Yo-18" value="&lt;span style=&quot;font-size: 12px; background-color: rgb(251, 251, 251);&quot;&gt;Prepare请求&lt;/span&gt;" style="edgeLabel;html=1;align=center;verticalAlign=middle;resizable=0;points=[];" vertex="1" connectable="0" parent="xCXwrp4IzFHrZe-hl9Yo-7">
          <mxGeometry x="0.0946" y="-14" relative="1" as="geometry">
            <mxPoint y="1" as="offset" />
          </mxGeometry>
        </mxCell>
        <mxCell id="xCXwrp4IzFHrZe-hl9Yo-9" value="" style="curved=1;endArrow=classic;html=1;rounded=0;exitX=1;exitY=0;exitDx=0;exitDy=0;entryX=0;entryY=0.5;entryDx=0;entryDy=0;" edge="1" parent="1" source="xCXwrp4IzFHrZe-hl9Yo-2" target="xCXwrp4IzFHrZe-hl9Yo-4">
          <mxGeometry width="50" height="50" relative="1" as="geometry">
            <mxPoint x="437" y="2587" as="sourcePoint" />
            <mxPoint x="579" y="2410" as="targetPoint" />
            <Array as="points">
              <mxPoint x="522" y="2534" />
            </Array>
          </mxGeometry>
        </mxCell>
        <mxCell id="xCXwrp4IzFHrZe-hl9Yo-10" value="Sign请求" style="edgeLabel;html=1;align=center;verticalAlign=middle;resizable=0;points=[];" vertex="1" connectable="0" parent="xCXwrp4IzFHrZe-hl9Yo-9">
          <mxGeometry x="-0.0777" y="-8" relative="1" as="geometry">
            <mxPoint x="5" y="-2" as="offset" />
          </mxGeometry>
        </mxCell>
        <mxCell id="xCXwrp4IzFHrZe-hl9Yo-11" value="" style="curved=1;endArrow=classic;html=1;rounded=0;exitX=1;exitY=1;exitDx=0;exitDy=0;entryX=0;entryY=0.5;entryDx=0;entryDy=0;" edge="1" parent="1" source="xCXwrp4IzFHrZe-hl9Yo-2" target="xCXwrp4IzFHrZe-hl9Yo-5">
          <mxGeometry width="50" height="50" relative="1" as="geometry">
            <mxPoint x="479" y="2594" as="sourcePoint" />
            <mxPoint x="579" y="2557" as="targetPoint" />
            <Array as="points">
              <mxPoint x="516" y="2673" />
            </Array>
          </mxGeometry>
        </mxCell>
        <mxCell id="xCXwrp4IzFHrZe-hl9Yo-12" value="Commit请求" style="edgeLabel;html=1;align=center;verticalAlign=middle;resizable=0;points=[];" vertex="1" connectable="0" parent="xCXwrp4IzFHrZe-hl9Yo-11">
          <mxGeometry x="-0.0777" y="-8" relative="1" as="geometry">
            <mxPoint x="42" y="-13" as="offset" />
          </mxGeometry>
        </mxCell>
        <mxCell id="xCXwrp4IzFHrZe-hl9Yo-13" value="" style="curved=1;endArrow=classic;html=1;rounded=0;entryX=0;entryY=0.5;entryDx=0;entryDy=0;exitX=0.5;exitY=1;exitDx=0;exitDy=0;" edge="1" parent="1" source="xCXwrp4IzFHrZe-hl9Yo-2" target="xCXwrp4IzFHrZe-hl9Yo-6">
          <mxGeometry width="50" height="50" relative="1" as="geometry">
            <mxPoint x="430" y="2630" as="sourcePoint" />
            <mxPoint x="579" y="2704" as="targetPoint" />
            <Array as="points">
              <mxPoint x="492" y="2793" />
            </Array>
          </mxGeometry>
        </mxCell>
        <mxCell id="xCXwrp4IzFHrZe-hl9Yo-14" value="ViewChange请求" style="edgeLabel;html=1;align=center;verticalAlign=middle;resizable=0;points=[];" vertex="1" connectable="0" parent="xCXwrp4IzFHrZe-hl9Yo-13">
          <mxGeometry x="-0.0777" y="-8" relative="1" as="geometry">
            <mxPoint x="28" y="-9" as="offset" />
          </mxGeometry>
        </mxCell>
        <mxCell id="xCXwrp4IzFHrZe-hl9Yo-34" style="edgeStyle=orthogonalEdgeStyle;rounded=0;orthogonalLoop=1;jettySize=auto;html=1;entryX=0;entryY=0.5;entryDx=0;entryDy=0;" edge="1" parent="1" source="xCXwrp4IzFHrZe-hl9Yo-21" target="xCXwrp4IzFHrZe-hl9Yo-30">
          <mxGeometry relative="1" as="geometry" />
        </mxCell>
        <mxCell id="xCXwrp4IzFHrZe-hl9Yo-35" value="是" style="edgeLabel;html=1;align=center;verticalAlign=middle;resizable=0;points=[];" vertex="1" connectable="0" parent="xCXwrp4IzFHrZe-hl9Yo-34">
          <mxGeometry x="0.56" relative="1" as="geometry">
            <mxPoint as="offset" />
          </mxGeometry>
        </mxCell>
        <mxCell id="xCXwrp4IzFHrZe-hl9Yo-21" value="&lt;div&gt;prepare请求是否有效&lt;/div&gt;&lt;div&gt;isValidPrepare()&lt;/div&gt;" style="ellipse;whiteSpace=wrap;html=1;" vertex="1" parent="1">
          <mxGeometry x="755" y="2376" width="156" height="50" as="geometry" />
        </mxCell>
        <mxCell id="xCXwrp4IzFHrZe-hl9Yo-36" style="edgeStyle=orthogonalEdgeStyle;rounded=0;orthogonalLoop=1;jettySize=auto;html=1;exitX=1;exitY=0.5;exitDx=0;exitDy=0;" edge="1" parent="1" source="xCXwrp4IzFHrZe-hl9Yo-22">
          <mxGeometry relative="1" as="geometry">
            <mxPoint x="940" y="2530" as="targetPoint" />
          </mxGeometry>
        </mxCell>
        <mxCell id="xCXwrp4IzFHrZe-hl9Yo-37" value="是" style="edgeLabel;html=1;align=center;verticalAlign=middle;resizable=0;points=[];" vertex="1" connectable="0" parent="xCXwrp4IzFHrZe-hl9Yo-36">
          <mxGeometry x="-0.037" y="-1" relative="1" as="geometry">
            <mxPoint as="offset" />
          </mxGeometry>
        </mxCell>
        <mxCell id="xCXwrp4IzFHrZe-hl9Yo-22" value="&lt;div&gt;sign请求是否有效&lt;/div&gt;&lt;div&gt;isValidSignReq()&lt;/div&gt;" style="ellipse;whiteSpace=wrap;html=1;" vertex="1" parent="1">
          <mxGeometry x="757" y="2505" width="156" height="50" as="geometry" />
        </mxCell>
        <mxCell id="xCXwrp4IzFHrZe-hl9Yo-38" style="edgeStyle=orthogonalEdgeStyle;rounded=0;orthogonalLoop=1;jettySize=auto;html=1;entryX=0;entryY=0.5;entryDx=0;entryDy=0;" edge="1" parent="1" source="xCXwrp4IzFHrZe-hl9Yo-23" target="xCXwrp4IzFHrZe-hl9Yo-32">
          <mxGeometry relative="1" as="geometry" />
        </mxCell>
        <mxCell id="xCXwrp4IzFHrZe-hl9Yo-39" value="是" style="edgeLabel;html=1;align=center;verticalAlign=middle;resizable=0;points=[];" vertex="1" connectable="0" parent="xCXwrp4IzFHrZe-hl9Yo-38">
          <mxGeometry x="0.2692" y="1" relative="1" as="geometry">
            <mxPoint as="offset" />
          </mxGeometry>
        </mxCell>
        <mxCell id="xCXwrp4IzFHrZe-hl9Yo-23" value="&lt;div&gt;Commit请求是否有效&lt;/div&gt;&lt;div&gt;isValidCommitReq()&lt;/div&gt;" style="ellipse;whiteSpace=wrap;html=1;" vertex="1" parent="1">
          <mxGeometry x="763" y="2669" width="156" height="50" as="geometry" />
        </mxCell>
        <mxCell id="xCXwrp4IzFHrZe-hl9Yo-40" style="edgeStyle=orthogonalEdgeStyle;rounded=0;orthogonalLoop=1;jettySize=auto;html=1;" edge="1" parent="1" source="xCXwrp4IzFHrZe-hl9Yo-24" target="xCXwrp4IzFHrZe-hl9Yo-33">
          <mxGeometry relative="1" as="geometry" />
        </mxCell>
        <mxCell id="xCXwrp4IzFHrZe-hl9Yo-41" value="是" style="edgeLabel;html=1;align=center;verticalAlign=middle;resizable=0;points=[];" vertex="1" connectable="0" parent="xCXwrp4IzFHrZe-hl9Yo-40">
          <mxGeometry x="0.5" y="-1" relative="1" as="geometry">
            <mxPoint as="offset" />
          </mxGeometry>
        </mxCell>
        <mxCell id="xCXwrp4IzFHrZe-hl9Yo-24" value="&lt;div&gt;Commit请求是否有效&lt;/div&gt;&lt;div&gt;isValidCommit()&lt;/div&gt;" style="ellipse;whiteSpace=wrap;html=1;" vertex="1" parent="1">
          <mxGeometry x="763" y="2819" width="156" height="50" as="geometry" />
        </mxCell>
        <mxCell id="xCXwrp4IzFHrZe-hl9Yo-53" style="edgeStyle=orthogonalEdgeStyle;rounded=0;orthogonalLoop=1;jettySize=auto;html=1;entryX=0;entryY=0.5;entryDx=0;entryDy=0;" edge="1" parent="1" source="xCXwrp4IzFHrZe-hl9Yo-30" target="xCXwrp4IzFHrZe-hl9Yo-52">
          <mxGeometry relative="1" as="geometry" />
        </mxCell>
        <mxCell id="xCXwrp4IzFHrZe-hl9Yo-30" value="&lt;div&gt;执行区块&lt;/div&gt;&lt;div&gt;&lt;span style=&quot;background-color: initial;&quot;&gt;execBlock()&lt;/span&gt;&lt;/div&gt;" style="ellipse;whiteSpace=wrap;html=1;" vertex="1" parent="1">
          <mxGeometry x="939" y="2376" width="156" height="50" as="geometry" />
        </mxCell>
        <mxCell id="xCXwrp4IzFHrZe-hl9Yo-57" style="edgeStyle=orthogonalEdgeStyle;rounded=0;orthogonalLoop=1;jettySize=auto;html=1;entryX=0;entryY=0.5;entryDx=0;entryDy=0;" edge="1" parent="1" source="xCXwrp4IzFHrZe-hl9Yo-31" target="xCXwrp4IzFHrZe-hl9Yo-56">
          <mxGeometry relative="1" as="geometry" />
        </mxCell>
        <mxCell id="xCXwrp4IzFHrZe-hl9Yo-31" value="&lt;div&gt;缓存sign请求&lt;/div&gt;&lt;div&gt;addSignReq()&lt;/div&gt;" style="ellipse;whiteSpace=wrap;html=1;" vertex="1" parent="1">
          <mxGeometry x="941" y="2505" width="156" height="50" as="geometry" />
        </mxCell>
        <mxCell id="xCXwrp4IzFHrZe-hl9Yo-65" style="edgeStyle=orthogonalEdgeStyle;rounded=0;orthogonalLoop=1;jettySize=auto;html=1;entryX=0;entryY=0.5;entryDx=0;entryDy=0;" edge="1" parent="1" source="xCXwrp4IzFHrZe-hl9Yo-32" target="xCXwrp4IzFHrZe-hl9Yo-63">
          <mxGeometry relative="1" as="geometry" />
        </mxCell>
        <mxCell id="xCXwrp4IzFHrZe-hl9Yo-32" value="&lt;div&gt;缓存CommitReq请求&lt;/div&gt;&lt;div&gt;addCommit()&lt;/div&gt;" style="ellipse;whiteSpace=wrap;html=1;" vertex="1" parent="1">
          <mxGeometry x="947" y="2669" width="156" height="50" as="geometry" />
        </mxCell>
        <mxCell id="xCXwrp4IzFHrZe-hl9Yo-72" style="edgeStyle=orthogonalEdgeStyle;rounded=0;orthogonalLoop=1;jettySize=auto;html=1;" edge="1" parent="1" source="xCXwrp4IzFHrZe-hl9Yo-33" target="xCXwrp4IzFHrZe-hl9Yo-70">
          <mxGeometry relative="1" as="geometry" />
        </mxCell>
        <mxCell id="xCXwrp4IzFHrZe-hl9Yo-33" value="&lt;div&gt;缓存ViewChange请求&lt;/div&gt;&lt;div&gt;addViewChangeReq()&lt;/div&gt;" style="ellipse;whiteSpace=wrap;html=1;" vertex="1" parent="1">
          <mxGeometry x="947" y="2819" width="156" height="50" as="geometry" />
        </mxCell>
        <mxCell id="xCXwrp4IzFHrZe-hl9Yo-42" value="" style="curved=1;endArrow=classic;html=1;rounded=0;exitX=0.5;exitY=1;exitDx=0;exitDy=0;entryX=0.288;entryY=0.051;entryDx=0;entryDy=0;entryPerimeter=0;" edge="1" parent="1" source="xCXwrp4IzFHrZe-hl9Yo-21" target="xCXwrp4IzFHrZe-hl9Yo-85">
          <mxGeometry width="50" height="50" relative="1" as="geometry">
            <mxPoint x="502" y="2594" as="sourcePoint" />
            <mxPoint x="461" y="2575" as="targetPoint" />
            <Array as="points">
              <mxPoint x="1643" y="2477" />
            </Array>
          </mxGeometry>
        </mxCell>
        <mxCell id="xCXwrp4IzFHrZe-hl9Yo-44" value="否" style="edgeLabel;html=1;align=center;verticalAlign=middle;resizable=0;points=[];" vertex="1" connectable="0" parent="xCXwrp4IzFHrZe-hl9Yo-42">
          <mxGeometry x="-0.0151" y="18" relative="1" as="geometry">
            <mxPoint x="3" y="22" as="offset" />
          </mxGeometry>
        </mxCell>
        <mxCell id="xCXwrp4IzFHrZe-hl9Yo-45" value="" style="curved=1;endArrow=classic;html=1;rounded=0;exitX=0.5;exitY=1;exitDx=0;exitDy=0;entryX=0.024;entryY=0.445;entryDx=0;entryDy=0;entryPerimeter=0;" edge="1" parent="1" source="xCXwrp4IzFHrZe-hl9Yo-22" target="xCXwrp4IzFHrZe-hl9Yo-85">
          <mxGeometry width="50" height="50" relative="1" as="geometry">
            <mxPoint x="843" y="2436" as="sourcePoint" />
            <mxPoint x="1681" y="2591" as="targetPoint" />
            <Array as="points">
              <mxPoint x="826" y="2576" />
              <mxPoint x="1255" y="2595" />
            </Array>
          </mxGeometry>
        </mxCell>
        <mxCell id="xCXwrp4IzFHrZe-hl9Yo-46" value="否" style="edgeLabel;html=1;align=center;verticalAlign=middle;resizable=0;points=[];" vertex="1" connectable="0" parent="xCXwrp4IzFHrZe-hl9Yo-45">
          <mxGeometry x="-0.0151" y="18" relative="1" as="geometry">
            <mxPoint x="76" y="-7" as="offset" />
          </mxGeometry>
        </mxCell>
        <mxCell id="xCXwrp4IzFHrZe-hl9Yo-86" value="否" style="edgeLabel;html=1;align=center;verticalAlign=middle;resizable=0;points=[];" vertex="1" connectable="0" parent="xCXwrp4IzFHrZe-hl9Yo-45">
          <mxGeometry x="0.0171" y="1" relative="1" as="geometry">
            <mxPoint as="offset" />
          </mxGeometry>
        </mxCell>
        <mxCell id="xCXwrp4IzFHrZe-hl9Yo-47" value="" style="curved=1;endArrow=classic;html=1;rounded=0;exitX=0.5;exitY=0;exitDx=0;exitDy=0;entryX=0.006;entryY=0.561;entryDx=0;entryDy=0;entryPerimeter=0;" edge="1" parent="1" source="xCXwrp4IzFHrZe-hl9Yo-23" target="xCXwrp4IzFHrZe-hl9Yo-85">
          <mxGeometry width="50" height="50" relative="1" as="geometry">
            <mxPoint x="845" y="2565" as="sourcePoint" />
            <mxPoint x="1683" y="2602" as="targetPoint" />
            <Array as="points">
              <mxPoint x="880" y="2631" />
            </Array>
          </mxGeometry>
        </mxCell>
        <mxCell id="xCXwrp4IzFHrZe-hl9Yo-89" value="否" style="edgeLabel;html=1;align=center;verticalAlign=middle;resizable=0;points=[];" vertex="1" connectable="0" parent="xCXwrp4IzFHrZe-hl9Yo-47">
          <mxGeometry x="-0.1982" y="-7" relative="1" as="geometry">
            <mxPoint x="87" y="-7" as="offset" />
          </mxGeometry>
        </mxCell>
        <mxCell id="xCXwrp4IzFHrZe-hl9Yo-49" value="" style="curved=1;endArrow=classic;html=1;rounded=0;exitX=0.5;exitY=0;exitDx=0;exitDy=0;entryX=0.247;entryY=0.976;entryDx=0;entryDy=0;entryPerimeter=0;" edge="1" parent="1" source="xCXwrp4IzFHrZe-hl9Yo-24" target="xCXwrp4IzFHrZe-hl9Yo-85">
          <mxGeometry width="50" height="50" relative="1" as="geometry">
            <mxPoint x="851" y="2679" as="sourcePoint" />
            <mxPoint x="516" y="2625" as="targetPoint" />
            <Array as="points">
              <mxPoint x="1679" y="2753" />
            </Array>
          </mxGeometry>
        </mxCell>
        <mxCell id="xCXwrp4IzFHrZe-hl9Yo-50" value="否" style="edgeLabel;html=1;align=center;verticalAlign=middle;resizable=0;points=[];" vertex="1" connectable="0" parent="xCXwrp4IzFHrZe-hl9Yo-49">
          <mxGeometry x="-0.0151" y="18" relative="1" as="geometry">
            <mxPoint x="39" as="offset" />
          </mxGeometry>
        </mxCell>
        <mxCell id="xCXwrp4IzFHrZe-hl9Yo-52" value="&lt;div&gt;缓存执行后的区块&lt;/div&gt;&lt;div&gt;&lt;span style=&quot;background-color: initial;&quot;&gt;addPrepareReq()&lt;/span&gt;&lt;/div&gt;" style="ellipse;whiteSpace=wrap;html=1;" vertex="1" parent="1">
          <mxGeometry x="1138" y="2376" width="156" height="50" as="geometry" />
        </mxCell>
        <mxCell id="xCXwrp4IzFHrZe-hl9Yo-54" value="&lt;div&gt;广播Sign请求：达到准备状态&lt;/div&gt;&lt;div&gt;&lt;span style=&quot;background-color: initial;&quot;&gt;broadcastSignReq()&lt;/span&gt;&lt;/div&gt;" style="ellipse;whiteSpace=wrap;html=1;" vertex="1" parent="1">
          <mxGeometry x="1330" y="2376" width="216" height="50" as="geometry" />
        </mxCell>
        <mxCell id="xCXwrp4IzFHrZe-hl9Yo-55" value="" style="endArrow=classic;html=1;rounded=0;exitX=1;exitY=0.5;exitDx=0;exitDy=0;entryX=0;entryY=0.5;entryDx=0;entryDy=0;" edge="1" parent="1" source="xCXwrp4IzFHrZe-hl9Yo-52" target="xCXwrp4IzFHrZe-hl9Yo-54">
          <mxGeometry width="50" height="50" relative="1" as="geometry">
            <mxPoint x="1201" y="2504" as="sourcePoint" />
            <mxPoint x="1251" y="2454" as="targetPoint" />
          </mxGeometry>
        </mxCell>
        <mxCell id="xCXwrp4IzFHrZe-hl9Yo-59" style="edgeStyle=orthogonalEdgeStyle;rounded=0;orthogonalLoop=1;jettySize=auto;html=1;exitX=1;exitY=0.5;exitDx=0;exitDy=0;" edge="1" parent="1" source="xCXwrp4IzFHrZe-hl9Yo-56" target="xCXwrp4IzFHrZe-hl9Yo-58">
          <mxGeometry relative="1" as="geometry" />
        </mxCell>
        <mxCell id="xCXwrp4IzFHrZe-hl9Yo-60" value="是" style="edgeLabel;html=1;align=center;verticalAlign=middle;resizable=0;points=[];" vertex="1" connectable="0" parent="xCXwrp4IzFHrZe-hl9Yo-59">
          <mxGeometry x="-0.0068" relative="1" as="geometry">
            <mxPoint as="offset" />
          </mxGeometry>
        </mxCell>
        <mxCell id="xCXwrp4IzFHrZe-hl9Yo-56" value="是否收到2f+1个Sign请求&lt;div&gt;checkAndCommit()&lt;/div&gt;" style="ellipse;whiteSpace=wrap;html=1;" vertex="1" parent="1">
          <mxGeometry x="1133" y="2505" width="156" height="50" as="geometry" />
        </mxCell>
        <mxCell id="xCXwrp4IzFHrZe-hl9Yo-58" value="&lt;div&gt;&lt;span style=&quot;background-color: initial;&quot;&gt;广播Commit请求：到达提交区块状态&lt;/span&gt;&lt;/div&gt;&lt;div&gt;&lt;span style=&quot;background-color: initial;&quot;&gt;broadcastCommitReq()&lt;/span&gt;&lt;br&gt;&lt;/div&gt;" style="ellipse;whiteSpace=wrap;html=1;" vertex="1" parent="1">
          <mxGeometry x="1332" y="2505" width="258" height="50" as="geometry" />
        </mxCell>
        <mxCell id="xCXwrp4IzFHrZe-hl9Yo-61" value="" style="curved=1;endArrow=classic;html=1;rounded=0;exitX=0.556;exitY=0.985;exitDx=0;exitDy=0;exitPerimeter=0;entryX=0.065;entryY=0.255;entryDx=0;entryDy=0;entryPerimeter=0;" edge="1" parent="1" source="xCXwrp4IzFHrZe-hl9Yo-56" target="xCXwrp4IzFHrZe-hl9Yo-85">
          <mxGeometry width="50" height="50" relative="1" as="geometry">
            <mxPoint x="845" y="2565" as="sourcePoint" />
            <mxPoint x="1682" y="2573" as="targetPoint" />
            <Array as="points">
              <mxPoint x="1307" y="2586" />
            </Array>
          </mxGeometry>
        </mxCell>
        <mxCell id="xCXwrp4IzFHrZe-hl9Yo-69" style="edgeStyle=orthogonalEdgeStyle;rounded=0;orthogonalLoop=1;jettySize=auto;html=1;entryX=0;entryY=0.5;entryDx=0;entryDy=0;" edge="1" parent="1" source="xCXwrp4IzFHrZe-hl9Yo-63" target="xCXwrp4IzFHrZe-hl9Yo-68">
          <mxGeometry relative="1" as="geometry" />
        </mxCell>
        <mxCell id="xCXwrp4IzFHrZe-hl9Yo-74" value="是" style="edgeLabel;html=1;align=center;verticalAlign=middle;resizable=0;points=[];" vertex="1" connectable="0" parent="xCXwrp4IzFHrZe-hl9Yo-69">
          <mxGeometry x="-0.2418" y="1" relative="1" as="geometry">
            <mxPoint x="-1" as="offset" />
          </mxGeometry>
        </mxCell>
        <mxCell id="xCXwrp4IzFHrZe-hl9Yo-63" value="&lt;div&gt;是否收到2f+1个Commit请求&lt;/div&gt;&lt;div&gt;checkAndSave()&lt;/div&gt;" style="ellipse;whiteSpace=wrap;html=1;" vertex="1" parent="1">
          <mxGeometry x="1138" y="2669" width="190" height="50" as="geometry" />
        </mxCell>
        <mxCell id="xCXwrp4IzFHrZe-hl9Yo-66" value="" style="curved=1;endArrow=classic;html=1;rounded=0;exitX=0.5;exitY=0;exitDx=0;exitDy=0;entryX=0.029;entryY=0.69;entryDx=0;entryDy=0;entryPerimeter=0;" edge="1" parent="1" source="xCXwrp4IzFHrZe-hl9Yo-63" target="xCXwrp4IzFHrZe-hl9Yo-85">
          <mxGeometry width="50" height="50" relative="1" as="geometry">
            <mxPoint x="1230" y="2564" as="sourcePoint" />
            <mxPoint x="1682" y="2616" as="targetPoint" />
            <Array as="points">
              <mxPoint x="1261" y="2632" />
            </Array>
          </mxGeometry>
        </mxCell>
        <mxCell id="xCXwrp4IzFHrZe-hl9Yo-90" value="否" style="edgeLabel;html=1;align=center;verticalAlign=middle;resizable=0;points=[];" vertex="1" connectable="0" parent="xCXwrp4IzFHrZe-hl9Yo-66">
          <mxGeometry x="-0.4689" y="-13" relative="1" as="geometry">
            <mxPoint x="-12" as="offset" />
          </mxGeometry>
        </mxCell>
        <mxCell id="xCXwrp4IzFHrZe-hl9Yo-68" value="&lt;div&gt;新区块共识成功，提交到DB落盘&lt;/div&gt;&lt;div&gt;commitBlock()&lt;/div&gt;" style="ellipse;whiteSpace=wrap;html=1;" vertex="1" parent="1">
          <mxGeometry x="1373" y="2669" width="206" height="50" as="geometry" />
        </mxCell>
        <mxCell id="xCXwrp4IzFHrZe-hl9Yo-73" style="edgeStyle=orthogonalEdgeStyle;rounded=0;orthogonalLoop=1;jettySize=auto;html=1;" edge="1" parent="1" source="xCXwrp4IzFHrZe-hl9Yo-70" target="xCXwrp4IzFHrZe-hl9Yo-71">
          <mxGeometry relative="1" as="geometry" />
        </mxCell>
        <mxCell id="xCXwrp4IzFHrZe-hl9Yo-75" value="是" style="edgeLabel;html=1;align=center;verticalAlign=middle;resizable=0;points=[];" vertex="1" connectable="0" parent="xCXwrp4IzFHrZe-hl9Yo-73">
          <mxGeometry x="0.1108" y="4" relative="1" as="geometry">
            <mxPoint as="offset" />
          </mxGeometry>
        </mxCell>
        <mxCell id="xCXwrp4IzFHrZe-hl9Yo-70" value="&lt;div&gt;是否收到2f+1个Commit请求&lt;/div&gt;&lt;div&gt;checkAndChangeView()&lt;/div&gt;" style="ellipse;whiteSpace=wrap;html=1;" vertex="1" parent="1">
          <mxGeometry x="1150" y="2819" width="190" height="50" as="geometry" />
        </mxCell>
        <mxCell id="xCXwrp4IzFHrZe-hl9Yo-71" value="达成共识，更新视图" style="ellipse;whiteSpace=wrap;html=1;" vertex="1" parent="1">
          <mxGeometry x="1383" y="2819" width="190" height="50" as="geometry" />
        </mxCell>
        <mxCell id="xCXwrp4IzFHrZe-hl9Yo-76" value="" style="curved=1;endArrow=classic;html=1;rounded=0;exitX=0.5;exitY=0;exitDx=0;exitDy=0;entryX=0.421;entryY=0.986;entryDx=0;entryDy=0;entryPerimeter=0;" edge="1" parent="1" source="xCXwrp4IzFHrZe-hl9Yo-70" target="xCXwrp4IzFHrZe-hl9Yo-85">
          <mxGeometry width="50" height="50" relative="1" as="geometry">
            <mxPoint x="1243" y="2679" as="sourcePoint" />
            <mxPoint x="1788" y="2651" as="targetPoint" />
            <Array as="points">
              <mxPoint x="1413" y="2794" />
              <mxPoint x="1544" y="2772" />
              <mxPoint x="1657" y="2738" />
              <mxPoint x="1721" y="2695" />
            </Array>
          </mxGeometry>
        </mxCell>
        <mxCell id="xCXwrp4IzFHrZe-hl9Yo-77" value="否" style="edgeLabel;html=1;align=center;verticalAlign=middle;resizable=0;points=[];" vertex="1" connectable="0" parent="xCXwrp4IzFHrZe-hl9Yo-76">
          <mxGeometry x="-0.0151" y="18" relative="1" as="geometry">
            <mxPoint x="-31" y="24" as="offset" />
          </mxGeometry>
        </mxCell>
        <mxCell id="xCXwrp4IzFHrZe-hl9Yo-103" style="edgeStyle=orthogonalEdgeStyle;rounded=0;orthogonalLoop=1;jettySize=auto;html=1;entryX=0;entryY=0.5;entryDx=0;entryDy=0;" edge="1" parent="1" source="xCXwrp4IzFHrZe-hl9Yo-78" target="xCXwrp4IzFHrZe-hl9Yo-102">
          <mxGeometry relative="1" as="geometry" />
        </mxCell>
        <mxCell id="xCXwrp4IzFHrZe-hl9Yo-78" value="&lt;div&gt;处理定时任务&lt;/div&gt;&lt;div&gt;PBFTEngine::checkTimeout()&lt;/div&gt;" style="ellipse;whiteSpace=wrap;html=1;fillColor=#FFF2CC;" vertex="1" parent="1">
          <mxGeometry x="186.5" y="2943" width="183" height="50" as="geometry" />
        </mxCell>
        <mxCell id="xCXwrp4IzFHrZe-hl9Yo-79" value="&lt;div&gt;&lt;span style=&quot;background-color: initial;&quot;&gt;PBFT共识引擎线程:循环运行PBFTEngine::workLoop()&lt;/span&gt;&lt;br&gt;&lt;/div&gt;" style="ellipse;whiteSpace=wrap;html=1;" vertex="1" parent="1">
          <mxGeometry x="-6" y="2742" width="183" height="50" as="geometry" />
        </mxCell>
        <mxCell id="xCXwrp4IzFHrZe-hl9Yo-81" value="" style="curved=1;endArrow=classic;html=1;rounded=0;exitX=0.5;exitY=0;exitDx=0;exitDy=0;entryX=0;entryY=0.5;entryDx=0;entryDy=0;" edge="1" parent="1" source="xCXwrp4IzFHrZe-hl9Yo-79" target="xCXwrp4IzFHrZe-hl9Yo-1">
          <mxGeometry width="50" height="50" relative="1" as="geometry">
            <mxPoint x="234" y="2851" as="sourcePoint" />
            <mxPoint x="353" y="2675" as="targetPoint" />
            <Array as="points">
              <mxPoint x="96" y="2635" />
            </Array>
          </mxGeometry>
        </mxCell>
        <mxCell id="xCXwrp4IzFHrZe-hl9Yo-82" value="&lt;span style=&quot;font-size: 12px; background-color: rgb(251, 251, 251);&quot;&gt;执行&lt;/span&gt;" style="edgeLabel;html=1;align=center;verticalAlign=middle;resizable=0;points=[];" vertex="1" connectable="0" parent="xCXwrp4IzFHrZe-hl9Yo-81">
          <mxGeometry x="0.0946" y="-14" relative="1" as="geometry">
            <mxPoint x="12" y="3" as="offset" />
          </mxGeometry>
        </mxCell>
        <mxCell id="xCXwrp4IzFHrZe-hl9Yo-85" value="&lt;div&gt;返回&lt;/div&gt;" style="ellipse;whiteSpace=wrap;html=1;" vertex="1" parent="1">
          <mxGeometry x="1685" y="2563" width="89" height="81" as="geometry" />
        </mxCell>
        <mxCell id="xCXwrp4IzFHrZe-hl9Yo-91" value="" style="curved=1;endArrow=classic;html=1;rounded=0;entryX=0.5;entryY=0;entryDx=0;entryDy=0;" edge="1" parent="1" target="xCXwrp4IzFHrZe-hl9Yo-85">
          <mxGeometry width="50" height="50" relative="1" as="geometry">
            <mxPoint x="1547" y="2401" as="sourcePoint" />
            <mxPoint x="1784" y="2549" as="targetPoint" />
            <Array as="points">
              <mxPoint x="1649" y="2395" />
              <mxPoint x="1739" y="2478" />
            </Array>
          </mxGeometry>
        </mxCell>
        <mxCell id="xCXwrp4IzFHrZe-hl9Yo-93" value="" style="curved=1;endArrow=classic;html=1;rounded=0;entryX=0;entryY=0;entryDx=0;entryDy=0;exitX=1;exitY=0.5;exitDx=0;exitDy=0;" edge="1" parent="1" source="xCXwrp4IzFHrZe-hl9Yo-58" target="xCXwrp4IzFHrZe-hl9Yo-85">
          <mxGeometry width="50" height="50" relative="1" as="geometry">
            <mxPoint x="1557" y="2411" as="sourcePoint" />
            <mxPoint x="1747" y="2557" as="targetPoint" />
            <Array as="points">
              <mxPoint x="1628" y="2533" />
            </Array>
          </mxGeometry>
        </mxCell>
        <mxCell id="xCXwrp4IzFHrZe-hl9Yo-94" value="" style="curved=1;endArrow=classic;html=1;rounded=0;entryX=0;entryY=1;entryDx=0;entryDy=0;exitX=1;exitY=0.5;exitDx=0;exitDy=0;" edge="1" parent="1" source="xCXwrp4IzFHrZe-hl9Yo-68" target="xCXwrp4IzFHrZe-hl9Yo-85">
          <mxGeometry width="50" height="50" relative="1" as="geometry">
            <mxPoint x="1600" y="2540" as="sourcePoint" />
            <mxPoint x="1710" y="2571" as="targetPoint" />
            <Array as="points">
              <mxPoint x="1638" y="2676" />
            </Array>
          </mxGeometry>
        </mxCell>
        <mxCell id="xCXwrp4IzFHrZe-hl9Yo-97" value="" style="curved=1;endArrow=classic;html=1;rounded=0;exitX=1;exitY=0.5;exitDx=0;exitDy=0;entryX=0.56;entryY=0.996;entryDx=0;entryDy=0;entryPerimeter=0;" edge="1" parent="1" source="xCXwrp4IzFHrZe-hl9Yo-71" target="xCXwrp4IzFHrZe-hl9Yo-85">
          <mxGeometry width="50" height="50" relative="1" as="geometry">
            <mxPoint x="1255" y="2829" as="sourcePoint" />
            <mxPoint x="1738" y="2655" as="targetPoint" />
            <Array as="points">
              <mxPoint x="1648" y="2821" />
              <mxPoint x="1718" y="2762" />
              <mxPoint x="1737" y="2707" />
            </Array>
          </mxGeometry>
        </mxCell>
        <mxCell id="xCXwrp4IzFHrZe-hl9Yo-101" value="" style="curved=1;endArrow=classic;html=1;rounded=0;entryX=0.5;entryY=0;entryDx=0;entryDy=0;exitX=1;exitY=0.5;exitDx=0;exitDy=0;" edge="1" parent="1" source="xCXwrp4IzFHrZe-hl9Yo-85" target="xCXwrp4IzFHrZe-hl9Yo-78">
          <mxGeometry width="50" height="50" relative="1" as="geometry">
            <mxPoint x="1788" y="2600" as="sourcePoint" />
            <mxPoint x="1978" y="2746" as="targetPoint" />
            <Array as="points">
              <mxPoint x="1790" y="2642" />
              <mxPoint x="1776" y="2821" />
              <mxPoint x="1668" y="2894" />
              <mxPoint x="962" y="2900" />
              <mxPoint x="278" y="2890" />
            </Array>
          </mxGeometry>
        </mxCell>
        <mxCell id="xCXwrp4IzFHrZe-hl9Yo-107" style="edgeStyle=orthogonalEdgeStyle;rounded=0;orthogonalLoop=1;jettySize=auto;html=1;exitX=1;exitY=0.5;exitDx=0;exitDy=0;entryX=0;entryY=0.5;entryDx=0;entryDy=0;" edge="1" parent="1" source="xCXwrp4IzFHrZe-hl9Yo-102" target="xCXwrp4IzFHrZe-hl9Yo-106">
          <mxGeometry relative="1" as="geometry" />
        </mxCell>
        <mxCell id="xCXwrp4IzFHrZe-hl9Yo-108" value="是" style="edgeLabel;html=1;align=center;verticalAlign=middle;resizable=0;points=[];" vertex="1" connectable="0" parent="xCXwrp4IzFHrZe-hl9Yo-107">
          <mxGeometry x="-0.0833" y="-1" relative="1" as="geometry">
            <mxPoint as="offset" />
          </mxGeometry>
        </mxCell>
        <mxCell id="xCXwrp4IzFHrZe-hl9Yo-102" value="&lt;div&gt;是否超时&lt;/div&gt;&lt;div&gt;isTimeOut()&lt;/div&gt;" style="ellipse;whiteSpace=wrap;html=1;" vertex="1" parent="1">
          <mxGeometry x="418" y="2943" width="154" height="50" as="geometry" />
        </mxCell>
        <mxCell id="xCXwrp4IzFHrZe-hl9Yo-104" value="" style="curved=1;endArrow=classic;html=1;rounded=0;entryX=0.5;entryY=1;entryDx=0;entryDy=0;exitX=0.5;exitY=1;exitDx=0;exitDy=0;" edge="1" parent="1" source="xCXwrp4IzFHrZe-hl9Yo-102" target="xCXwrp4IzFHrZe-hl9Yo-120">
          <mxGeometry width="50" height="50" relative="1" as="geometry">
            <mxPoint x="443" y="3067" as="sourcePoint" />
            <mxPoint x="626" y="3229" as="targetPoint" />
            <Array as="points">
              <mxPoint x="495" y="3027" />
              <mxPoint x="654" y="3050" />
              <mxPoint x="1598" y="3062" />
            </Array>
          </mxGeometry>
        </mxCell>
        <mxCell id="xCXwrp4IzFHrZe-hl9Yo-105" value="返回" style="edgeLabel;html=1;align=center;verticalAlign=middle;resizable=0;points=[];" vertex="1" connectable="0" parent="xCXwrp4IzFHrZe-hl9Yo-104">
          <mxGeometry x="0.0822" y="-9" relative="1" as="geometry">
            <mxPoint x="-65" y="-114" as="offset" />
          </mxGeometry>
        </mxCell>
        <mxCell id="xCXwrp4IzFHrZe-hl9Yo-121" value="否" style="edgeLabel;html=1;align=center;verticalAlign=middle;resizable=0;points=[];" vertex="1" connectable="0" parent="xCXwrp4IzFHrZe-hl9Yo-104">
          <mxGeometry x="-0.6526" y="11" relative="1" as="geometry">
            <mxPoint x="134" y="10" as="offset" />
          </mxGeometry>
        </mxCell>
        <mxCell id="xCXwrp4IzFHrZe-hl9Yo-116" style="edgeStyle=orthogonalEdgeStyle;rounded=0;orthogonalLoop=1;jettySize=auto;html=1;exitX=1;exitY=0.5;exitDx=0;exitDy=0;entryX=0;entryY=0.5;entryDx=0;entryDy=0;" edge="1" parent="1" source="xCXwrp4IzFHrZe-hl9Yo-106" target="xCXwrp4IzFHrZe-hl9Yo-114">
          <mxGeometry relative="1" as="geometry" />
        </mxCell>
        <mxCell id="xCXwrp4IzFHrZe-hl9Yo-106" value="&lt;div&gt;开始切换视图，广播ViewChange请求&lt;/div&gt;&lt;div&gt;broadcastViewChangeReq()&lt;/div&gt;" style="ellipse;whiteSpace=wrap;html=1;" vertex="1" parent="1">
          <mxGeometry x="626" y="2943" width="274" height="50" as="geometry" />
        </mxCell>
        <mxCell id="xCXwrp4IzFHrZe-hl9Yo-117" style="edgeStyle=orthogonalEdgeStyle;rounded=0;orthogonalLoop=1;jettySize=auto;html=1;entryX=0;entryY=0.5;entryDx=0;entryDy=0;" edge="1" parent="1" source="xCXwrp4IzFHrZe-hl9Yo-114" target="xCXwrp4IzFHrZe-hl9Yo-115">
          <mxGeometry relative="1" as="geometry" />
        </mxCell>
        <mxCell id="xCXwrp4IzFHrZe-hl9Yo-118" value="是" style="edgeLabel;html=1;align=center;verticalAlign=middle;resizable=0;points=[];" vertex="1" connectable="0" parent="xCXwrp4IzFHrZe-hl9Yo-117">
          <mxGeometry x="-0.36" y="2" relative="1" as="geometry">
            <mxPoint as="offset" />
          </mxGeometry>
        </mxCell>
        <mxCell id="xCXwrp4IzFHrZe-hl9Yo-114" value="&lt;div&gt;是否收到2f+1个Commit请求&lt;/div&gt;&lt;div&gt;checkAndChangeView()&lt;/div&gt;" style="ellipse;whiteSpace=wrap;html=1;" vertex="1" parent="1">
          <mxGeometry x="963" y="2943" width="186" height="50" as="geometry" />
        </mxCell>
        <mxCell id="xCXwrp4IzFHrZe-hl9Yo-124" style="edgeStyle=orthogonalEdgeStyle;rounded=0;orthogonalLoop=1;jettySize=auto;html=1;entryX=0;entryY=0.5;entryDx=0;entryDy=0;" edge="1" parent="1" source="xCXwrp4IzFHrZe-hl9Yo-115" target="xCXwrp4IzFHrZe-hl9Yo-120">
          <mxGeometry relative="1" as="geometry" />
        </mxCell>
        <mxCell id="xCXwrp4IzFHrZe-hl9Yo-115" value="达成共识，更新视图" style="ellipse;whiteSpace=wrap;html=1;" vertex="1" parent="1">
          <mxGeometry x="1224" y="2943" width="201" height="50" as="geometry" />
        </mxCell>
        <mxCell id="xCXwrp4IzFHrZe-hl9Yo-120" value="&lt;div&gt;返回&lt;/div&gt;" style="ellipse;whiteSpace=wrap;html=1;" vertex="1" parent="1">
          <mxGeometry x="1539" y="2927.5" width="89" height="81" as="geometry" />
        </mxCell>
        <mxCell id="xCXwrp4IzFHrZe-hl9Yo-122" value="" style="curved=1;endArrow=classic;html=1;rounded=0;exitX=0.5;exitY=1;exitDx=0;exitDy=0;entryX=0;entryY=1;entryDx=0;entryDy=0;" edge="1" parent="1" source="xCXwrp4IzFHrZe-hl9Yo-114" target="xCXwrp4IzFHrZe-hl9Yo-120">
          <mxGeometry width="50" height="50" relative="1" as="geometry">
            <mxPoint x="796" y="3202" as="sourcePoint" />
            <mxPoint x="1662" y="3025" as="targetPoint" />
            <Array as="points">
              <mxPoint x="1103" y="3021" />
              <mxPoint x="1476" y="3025" />
            </Array>
          </mxGeometry>
        </mxCell>
        <mxCell id="xCXwrp4IzFHrZe-hl9Yo-123" value="否" style="edgeLabel;html=1;align=center;verticalAlign=middle;resizable=0;points=[];" vertex="1" connectable="0" parent="xCXwrp4IzFHrZe-hl9Yo-122">
          <mxGeometry x="-0.0151" y="18" relative="1" as="geometry">
            <mxPoint x="38" y="18" as="offset" />
          </mxGeometry>
        </mxCell>
        <mxCell id="xCXwrp4IzFHrZe-hl9Yo-125" value="" style="curved=1;endArrow=classic;html=1;rounded=0;entryX=0.5;entryY=1;entryDx=0;entryDy=0;exitX=1;exitY=0.5;exitDx=0;exitDy=0;" edge="1" parent="1" source="xCXwrp4IzFHrZe-hl9Yo-120" target="xCXwrp4IzFHrZe-hl9Yo-79">
          <mxGeometry width="50" height="50" relative="1" as="geometry">
            <mxPoint x="1626" y="2970" as="sourcePoint" />
            <mxPoint x="1809" y="3132" as="targetPoint" />
            <Array as="points">
              <mxPoint x="1689" y="2986" />
              <mxPoint x="1636" y="3116" />
              <mxPoint x="848" y="3095" />
              <mxPoint x="54" y="3105" />
            </Array>
          </mxGeometry>
        </mxCell>
        <mxCell id="xCXwrp4IzFHrZe-hl9Yo-126" value="返回" style="edgeLabel;html=1;align=center;verticalAlign=middle;resizable=0;points=[];" vertex="1" connectable="0" parent="xCXwrp4IzFHrZe-hl9Yo-125">
          <mxGeometry x="0.8451" y="-36" relative="1" as="geometry">
            <mxPoint as="offset" />
          </mxGeometry>
        </mxCell>
      </root>
    </mxGraphModel>
  </diagram>
</mxfile>
